<svg id="icon" viewBox="0 0 24 24" xmlns="http://www.w3.org/2000/svg" fill="currentColor"><path d="M 20.2103 6.4143 L 20.0783 5.7483 C 19.9598 5.1507 19.6909 4.586 19.0775 4.37 C 18.8808 4.3009 18.6577 4.2712 18.507 4.1282 C 18.3562 3.9852 18.3116 3.763 18.2768 3.5571 C 18.2122 3.179 18.1515 2.8006 18.0853 2.4232 C 18.0282 2.0987 17.983 1.7342 17.8341 1.4365 C 17.6404 1.0368 17.2385 0.8031 16.8388 0.6485 C 16.634 0.572 16.425 0.5073 16.2128 0.4547 C 15.2142 0.1913 14.1642 0.0944 13.1369 0.0392 C 11.9038 -0.0288 10.6675 -0.0083 9.4373 0.1006 C 8.5217 0.1839 7.5573 0.2846 6.6872 0.6013 C 6.3692 0.7172 6.0415 0.8564 5.7997 1.1021 C 5.503 1.4039 5.4061 1.8708 5.6228 2.2472 C 5.7768 2.5146 6.0376 2.7034 6.3143 2.8284 C 6.6747 2.9894 7.0511 3.1119 7.4372 3.1939 C 8.5123 3.4315 9.6259 3.5248 10.7242 3.5645 C 11.9416 3.6136 13.1609 3.5738 14.3725 3.4453 C 14.6721 3.4124 14.9712 3.3729 15.2697 3.3269 C 15.6213 3.2729 15.847 2.8132 15.7433 2.4929 C 15.6193 2.11 15.2862 1.9615 14.9094 2.0193 C 14.8539 2.028 14.7987 2.0361 14.7431 2.0441 L 14.7031 2.05 C 14.5754 2.0661 14.4478 2.0812 14.3202 2.0952 C 14.0565 2.1236 13.7922 2.1468 13.5272 2.1649 C 12.9338 2.2062 12.3388 2.2253 11.7441 2.2262 C 11.1597 2.2262 10.5751 2.2098 9.992 2.1714 C 9.7259 2.1539 9.4605 2.1318 9.1958 2.1048 C 9.0754 2.0923 8.9553 2.079 8.8352 2.0642 L 8.7209 2.0496 L 8.696 2.0461 L 8.5776 2.029 C 8.3354 1.9925 8.0933 1.9505 7.8537 1.8998 C 7.8295 1.8945 7.8079 1.881 7.7924 1.8617 C 7.7769 1.8424 7.7685 1.8184 7.7685 1.7936 C 7.7685 1.7689 7.7769 1.7448 7.7924 1.7255 C 7.8079 1.7062 7.8295 1.6928 7.8537 1.6874 H 7.8582 C 8.0658 1.6432 8.275 1.6054 8.4849 1.5725 C 8.5548 1.5615 8.625 1.5507 8.6954 1.5402 H 8.6973 C 8.8287 1.5315 8.9608 1.5079 9.0915 1.4924 C 10.2292 1.3741 11.3736 1.3337 12.5167 1.3716 C 13.0717 1.3878 13.6264 1.4204 14.1788 1.4766 C 14.2976 1.4888 14.4157 1.5018 14.5339 1.5163 C 14.5791 1.5218 14.6246 1.5282 14.6702 1.5337 L 14.7618 1.547 C 15.0292 1.5868 15.2951 1.6351 15.5596 1.6919 C 15.9516 1.7772 16.4549 1.8049 16.6292 2.2343 C 16.6848 2.3706 16.71 2.522 16.7406 2.665 L 16.7797 2.8474 C 16.7807 2.8507 16.7815 2.854 16.7819 2.8574 C 16.8743 3.2879 16.9667 3.7184 17.0593 4.1488 C 17.0661 4.1807 17.0662 4.2135 17.0597 4.2454 C 17.0533 4.2772 17.0403 4.3074 17.0216 4.3341 C 17.003 4.3607 16.979 4.3832 16.9513 4.4001 C 16.9235 4.4171 16.8926 4.4282 16.8604 4.4326 H 16.8578 L 16.8013 4.4404 L 16.7455 4.4478 C 16.5685 4.4708 16.3914 4.4924 16.214 4.5124 C 15.8647 4.5522 15.5148 4.5866 15.1644 4.6157 C 14.4681 4.6736 13.7705 4.7116 13.0714 4.7297 C 12.7152 4.7391 12.359 4.7436 12.003 4.7429 C 10.586 4.7418 9.1702 4.6594 7.7627 4.4962 C 7.6103 4.4782 7.4579 4.4588 7.3055 4.4391 C 7.4237 4.4543 7.2196 4.4275 7.1783 4.4217 C 7.0814 4.4081 6.9846 4.394 6.8877 4.3794 C 6.5626 4.3306 6.2394 4.2706 5.915 4.2179 C 5.5227 4.1534 5.1475 4.1857 4.7927 4.3794 C 4.5015 4.5388 4.2657 4.7832 4.117 5.08 C 3.9639 5.3964 3.9184 5.7408 3.85 6.0808 C 3.7815 6.4208 3.675 6.7866 3.7153 7.1356 C 3.8022 7.8888 4.3288 8.5009 5.0862 8.6378 C 5.7987 8.767 6.5151 8.8716 7.2335 8.9607 C 10.0554 9.3063 12.9062 9.3476 15.7369 9.084 C 15.9674 9.0625 16.1976 9.039 16.4274 9.0136 C 16.4993 9.0058 16.5719 9.014 16.6401 9.0378 C 16.7083 9.0617 16.7703 9.1005 16.8215 9.1513 C 16.8728 9.2022 16.912 9.2639 16.9363 9.3319 C 16.9607 9.4 16.9695 9.4726 16.9621 9.5444 L 16.8904 10.2411 C 16.746 11.649 16.6016 13.0567 16.4572 14.4644 C 16.3065 15.9427 16.1549 17.4208 16.0022 18.8987 C 15.9592 19.3151 15.9162 19.7313 15.8731 20.1473 C 15.8318 20.5571 15.826 20.9796 15.7482 21.3845 C 15.6255 22.0212 15.1945 22.4122 14.5656 22.5552 C 13.9894 22.6864 13.4007 22.7552 12.8099 22.7605 C 12.1548 22.764 11.5 22.735 10.845 22.7385 C 10.1456 22.7425 9.2891 22.6779 8.7493 22.1574 C 8.275 21.7003 8.2095 20.9845 8.1449 20.3655 C 8.0588 19.5461 7.9735 18.7268 7.8889 17.9077 L 7.4143 13.3525 L 7.1073 10.4051 C 7.1021 10.3564 7.0969 10.3083 7.0921 10.2592 C 7.0553 9.9076 6.8064 9.5635 6.4141 9.5812 C 6.0783 9.5961 5.6967 9.8815 5.7361 10.2592 L 5.9637 12.4443 L 6.4344 16.9643 C 6.5685 18.2482 6.7023 19.5322 6.8357 20.8166 C 6.8616 21.0626 6.8858 21.3093 6.9129 21.5553 C 7.0605 22.8997 8.0871 23.6242 9.3585 23.8281 C 10.1011 23.9476 10.8617 23.9722 11.6153 23.9844 C 12.5813 24 13.5569 24.0372 14.5071 23.8621 C 15.9151 23.6037 16.9715 22.6637 17.1222 21.2053 C 17.1653 20.7843 17.2083 20.3632 17.2514 19.942 C 17.3945 18.549 17.5374 17.1558 17.6801 15.7626 L 18.147 11.2104 L 18.361 9.1241 C 18.3717 9.0206 18.4154 8.9233 18.4856 8.8466 C 18.5559 8.77 18.6489 8.7179 18.751 8.6982 C 19.1536 8.6198 19.5385 8.4858 19.8249 8.1794 C 20.2807 7.6916 20.3715 7.0555 20.2103 6.4143 Z M 5.0655 6.8644 C 5.0717 6.8615 5.0604 6.9141 5.0555 6.9386 C 5.0545 6.9015 5.0565 6.8686 5.0655 6.8644 Z M 5.1046 7.1666 C 5.1078 7.1643 5.1175 7.1772 5.1275 7.1927 C 5.1123 7.1785 5.1027 7.1679 5.1043 7.1666 H 5.1046 Z M 5.143 7.2173 C 5.1569 7.2408 5.1643 7.2557 5.143 7.2173 V 7.2173 Z M 5.2202 7.2799 H 5.2221 C 5.2221 7.2822 5.2257 7.2844 5.227 7.2867 C 5.2248 7.2842 5.2224 7.2819 5.2199 7.2799 H 5.2202 Z M 18.7323 7.1863 C 18.5877 7.3238 18.3697 7.3877 18.1544 7.4197 C 15.7394 7.7781 13.2893 7.9595 10.8479 7.8794 C 9.1006 7.8197 7.3717 7.6257 5.6418 7.3813 C 5.4723 7.3574 5.2886 7.3264 5.1721 7.2014 C 4.9525 6.9658 5.0604 6.4912 5.1175 6.2064 C 5.1698 5.9455 5.2699 5.5978 5.5802 5.5607 C 6.0644 5.5039 6.6268 5.7082 7.106 5.7809 C 7.6828 5.8689 8.2618 5.9394 8.8429 5.9924 C 11.3231 6.2184 13.8449 6.1832 16.3141 5.8526 C 16.7642 5.7921 17.2126 5.7218 17.6595 5.6417 C 18.0576 5.5704 18.4989 5.4364 18.7394 5.8487 C 18.9044 6.1296 18.9264 6.5054 18.9009 6.8227 C 18.893 6.961 18.8326 7.0911 18.732 7.1863 H 18.7323 Z M 12.5746 11.0862 C 11.7126 11.4553 10.7343 11.8737 9.4665 11.8737 C 8.9361 11.8726 8.4083 11.7998 7.8974 11.6574 L 8.7743 20.6603 C 8.8053 21.0365 8.9767 21.3874 9.2545 21.6431 C 9.5322 21.8988 9.896 22.0407 10.2736 22.0407 C 10.2736 22.0407 11.5169 22.1052 11.9318 22.1052 C 12.3783 22.1052 13.7172 22.0407 13.7172 22.0407 C 14.0947 22.0407 14.4584 21.8987 14.7361 21.6429 C 15.0138 21.3872 15.1852 21.0365 15.2162 20.6603 L 16.1554 10.7117 C 15.7357 10.5684 15.3121 10.4731 14.8346 10.4731 C 14.0087 10.4728 13.3433 10.7572 12.5746 11.0862"></path></svg>